<svg id="Layer_1" data-name="Layer 1" xmlns="http://www.w3.org/2000/svg" viewBox="0 0 821.6 667.71"><defs><style>.cls-1{fill:#a7a9ac;}.cls-2{fill:#34d399;}</style></defs><path class="cls-1" d="M1941.41,1645.34l120.25-120.24c.73-.58,1.54-1.31,2-1.79a56.6,56.6,0,0,0-.21-80c-.58-.56-1.19-1.09-1.83-1.6l-120.25-120.25a56.27,56.27,0,0,0-79.58,79.57l24.57,24.55H1363.35a57.84,57.84,0,0,0,0,115.68H1886.4l-24.57,24.52a56.26,56.26,0,1,0,79.58,79.56Z" transform="translate(-1305.53 -1304.98)"/><path class="cls-2" d="M1491.25,1632.32,1371,1752.56c-.73.58-1.53,1.31-2,1.8a56.59,56.59,0,0,0,.21,80,21.25,21.25,0,0,0,1.82,1.6l120.26,120.25a56.26,56.26,0,0,0,79.57-79.57l-24.57-24.55h523.06a57.84,57.84,0,0,0,0-115.68H1546.25l24.57-24.52a56.26,56.26,0,1,0-79.57-79.56Z" transform="translate(-1305.53 -1304.98)"/></svg>